Coordinates
version=1
nRows=6
nColumns=34
inDegrees=yes

Units are S.I. units (second, meters, Newtons, ...)
If the header above contains a line with 'inDegrees', this indicates whether rotational values are in degrees (yes) or radians (no).

endheader
time	pelvis_tilt	pelvis_list	pelvis_rotation	pelvis_tx	pelvis_ty	pelvis_tz	hip_flexion_r	hip_adduction_r	hip_rotation_r	knee_angle_r	ankle_angle_r	subtalar_angle_r	mtp_angle_r	hip_flexion_l	hip_adduction_l	hip_rotation_l	knee_angle_l	ankle_angle_l	subtalar_angle_l	mtp_angle_l	lumbar_extension	lumbar_bending	lumbar_rotation	arm_flex_r	arm_add_r	arm_rot_r	elbow_flex_r	pro_sup_r	arm_flex_l	arm_add_l	arm_rot_l	elbow_flex_l	pro_sup_l
      8.13333330	    -11.22410996	     -2.29929433	     18.10555653	     -0.52409095	      0.69373124	     -0.21428076	      5.15556652	     -7.62401056	     39.99999995	     15.44938447	    -50.00000000	    -35.00000000	      0.00000000	     28.46322681	     -3.37513673	     13.83764173	     34.05983509	     46.04639011	     24.18311385	      0.00000000	      9.79369537	      0.54416715	     -2.60812419	    -21.28571390	    -17.95600490	     -7.28803835	     26.00367797	     77.93129837	      9.59194991	    -22.63745385	     55.79199326	     23.31419659	     68.68040078
      8.15000000	    -12.78505202	     -2.17292955	     17.73701048	     -0.52270737	      0.69673136	     -0.21296470	      6.71731617	     -8.05763975	     39.99999995	     15.47098920	    -50.00000000	    -35.00000000	      0.00000000	     28.69375989	     -3.02661087	     13.93606439	     32.00103996	     44.59883572	     23.41818936	      0.00000000	     12.39955396	     -0.36896254	     -1.05928974	    -24.08570256	    -17.65111175	     -8.66323555	     28.84942566	     77.55247820	     10.30775825	    -24.02677241	     59.30745989	     25.57131982	     69.55595202
      8.16666670	    -14.20986257	     -2.26900231	     17.19848950	     -0.51988017	      0.69603549	     -0.21228641	      8.18550761	     -8.25091089	     39.99999995	     15.37675716	    -50.00000000	    -35.00000000	      0.00000000	     28.89451315	     -3.00352990	     14.13389853	     30.06423981	     43.56333027	     22.69253765	      0.00000000	     15.00363515	     -0.86002844	      0.75125492	    -26.54252303	    -17.60388695	     -9.00376506	     30.00143950	     77.45560823	     10.86492917	    -25.05483304	     60.36945580	     27.10545928	     69.67246852
      8.18333330	    -15.54799107	     -2.07695167	     16.84230931	     -0.51914407	      0.70161859	     -0.21207237	      9.44643066	     -8.79633358	     39.99999995	     14.95547586	    -50.00000000	    -35.00000000	      0.00000000	     28.63876250	     -2.52132157	     15.14804959	     27.74412313	     41.63668600	     21.27345140	      0.00000000	     17.09802666	     -1.48822204	      2.58821169	    -30.66149588	    -16.69994793	    -12.11133194	     35.76739125	     76.72947419	     12.55893189	    -27.41816112	     67.28726933	     31.69158004	     70.00933437
      8.20000000	    -17.08586418	     -2.14365918	     16.29761573	     -0.51820871	      0.70570952	     -0.21187515	     10.97221681	     -9.02971594	     39.99999995	     14.61833073	    -50.00000000	    -35.00000000	      0.00000000	     28.82565549	     -2.31105634	     16.16587798	     25.64919466	     40.25615173	     19.45726602	      0.00000000	     19.81919037	     -1.60362635	      6.06297028	    -35.93659218	    -15.02523813	    -16.62136702	     39.93023181	     75.86048356	     16.89120940	    -29.43940562	     78.95004549	     36.14762137	     68.24813782
      8.21666670	    -18.12147494	     -1.80465803	     15.80240804	     -0.52052112	      0.70530564	     -0.21119849	     11.98789911	     -9.51407482	     39.99999995	     14.37707944	    -50.00000000	    -35.00000000	      0.00000000	     28.71479248	     -1.75808463	     17.19732051	     23.67627774	     37.65493491	     17.55510288	      0.00000000	     21.96285108	     -2.02475383	     11.15905928	    -41.25353429	    -12.12647281	    -19.48063568	     44.10017834	     75.66935590	     26.03518898	    -29.05981718	    100.35353791	     39.90052163	     54.32705454
